<svg xmlns="http://www.w3.org/2000/svg" version="1.1" xmlns:xlink="http://www.w3.org/1999/xlink" xmlns:svgjs="http://svgjs.dev/svgjs" width="1000" height="1000" viewBox="0 0 1000 1000"><rect width="1000" height="1000" fill="#ffffff"></rect><g transform="matrix(0.7,0,0,0.7,149.5757660945045,398.42936268211906)"><svg viewBox="0 0 396 115" data-background-color="#ffffff" preserveAspectRatio="xMidYMid meet" height="290" width="1000" xmlns="http://www.w3.org/2000/svg" xmlns:xlink="http://www.w3.org/1999/xlink"><g id="tight-bounds" transform="matrix(1,0,0,1,0.23999544779775306,0.040016298070923995)"><svg viewBox="0 0 395.52 114.919967487366" height="114.919967487366" width="395.52"><g><svg viewBox="0 0 684.0662839837454 198.75828052845696" height="114.919967487366" width="395.52"><g transform="matrix(1,0,0,1,0,5.945407094093852)"><svg viewBox="0 0 395.52 186.86746634026926" height="186.86746634026926" width="395.52"><g id="textblocktransform"><svg viewBox="0 0 395.52 186.86746634026926" height="186.86746634026926" width="395.52" id="textblock"><g><svg viewBox="0 0 395.52 186.86746634026926" height="186.86746634026926" width="395.52"><g transform="matrix(1,0,0,1,0,0)"><svg width="395.52" viewBox="3.4000000953674316 -37.650001525878906 81.68999481201172 38.60000228881836" height="186.86746634026926" data-palette-color="#000000"><g class="undefined-text-0" data-fill-palette-color="primary" id="text-0"><path d="M5.7 0.3Q4.5 0.3 4.03 0.08 3.55-0.15 3.55-0.8L3.55-0.8 3.55-1.75Q3.5-2.15 3.5-2.65L3.5-2.65 3.5-2.75 3.55-10.05 3.5-30.7Q3.5-33.9 3.4-36.25L3.4-36.25Q3.4-36.85 3.65-37.25 3.9-37.65 4.3-37.65L4.3-37.65 7.4-37.65Q8.1-37.65 8.45-37.55L8.45-37.55Q8.95-37.4 8.95-36.7L8.95-36.7Q8.95-36.3 8.65-36.05 8.35-35.8 8-35.75L8-35.75 7.15-35.75 6.35-35.8 5.55-35.85Q5.2-35.85 5.08-35.73 4.95-35.6 4.95-35.25L4.95-35.25Q4.95-32.9 5-31L5-31 5-26.75 5-20.5Q5-20.4 5.1-20.4L5.1-20.4 5.15-20.4 5.2-20.4Q6.45-20.5 7.9-20.5L7.9-20.5Q8.7-20.5 8.7-19.8L8.7-19.8Q8.7-19.3 8.53-19.13 8.35-18.95 7.95-18.95L7.95-18.95 5.1-18.95Q4.9-18.95 4.9-18.7L4.9-18.7 5-11.3Q5.1-7.85 5.1-3.35L5.1-3.35 5.1-1.5 7.25-1.5 9.35-1.5 9.8-1.5Q10.7-1.5 10.7-0.85L10.7-0.85Q10.7-0.05 10.25 0.1L10.25 0.1Q9.65 0.3 7.8 0.3L7.8 0.3 5.7 0.3ZM25.9 0.45Q25.15 0.45 24.95 0.28 24.75 0.1 24.65-0.65L24.65-0.65Q24.2-4.3 24.1-5.2L24.1-5.2 23.85-7.2Q22.75-7.45 21.35-7.45L21.35-7.45 19.55-7.55Q18.35-7.7 17.8-7.7L17.8-7.7Q17.5-7.7 17.45-7.45L17.45-7.45Q17.45-7.3 17.4-7.3L17.4-7.3 17.3-6.3Q17.25-5.4 16.75-2.7L16.75-2.7Q16.5-1.35 16.15-0.6L16.15-0.6Q15.75 0.25 15.4 0.25L15.4 0.25Q15.1 0.25 14.75-0.03 14.4-0.3 14.4-0.6L14.4-0.6 14.45-0.75 14.5-0.9Q15.4-4.45 16-7.95L16-7.95 16.6-11.05 17.2-14.85Q17.2-14.85 17.75-18.15L17.75-18.15Q18-19.5 18.65-22.5L18.65-22.5Q19.35-25.9 19.5-27.15L19.5-27.15Q19.55-27.3 19.7-29L19.7-29Q19.9-30.9 20.05-31.8L20.05-31.8Q20.2-33.1 20.35-33.3L20.35-33.3 20.7-33.3Q20.85-33.25 21.05-33.25L21.05-33.25Q21.65-33.25 21.95-33.55L21.95-33.55Q22.3-33.55 22.57-33.33 22.85-33.1 22.85-32.8L22.85-32.8Q22.85-30.4 23.2-27.3L23.2-27.3Q23.4-25.7 23.5-24.65L23.5-24.65Q24.05-18.2 26.3-0.45L26.3-0.45 26.3-0.3Q26.3 0.2 25.9 0.45L25.9 0.45ZM23.1-8.55L23.6-8.55Q23.1-15.75 21.7-29.8L21.7-29.8 19-16.45Q17.85-10.7 17.85-9.2L17.85-9.2Q17.85-8.95 19.75-8.75 21.65-8.55 23.1-8.55L23.1-8.55ZM32.25 0.6Q31.7 0.5 31.2 0.18 30.7-0.15 30.65-0.6L30.65-0.6 30.9-1Q31.1-1 31.8-0.85L31.8-0.85Q32.34-0.65 32.7-0.65L32.7-0.65Q33.8-0.65 34.65-1.53 35.5-2.4 35.95-3.8L35.95-3.8Q36.65-6.4 36.65-8.7L36.65-8.7Q36.65-12.15 34.55-16.1L34.55-16.1Q33.25-18.4 32.55-19.75 31.85-21.1 31.3-22.85L31.3-22.85Q30.65-24.9 30.65-26.8L30.65-26.8Q30.65-28.6 31.55-31.05L31.55-31.05Q32-32.2 32.82-32.93 33.65-33.65 34.59-33.65L34.59-33.65Q35.25-33.65 35.87-33.2 36.5-32.75 36.5-32.25L36.5-32.25Q36.5-31.85 35.84-31.85L35.84-31.85Q35.65-31.85 35.34-32L35.34-32Q35.05-32.15 34.8-32.15L34.8-32.15Q34.05-32.15 33.45-31.55 32.84-30.95 32.55-30L32.55-30Q31.95-28.15 31.95-26.6L31.95-26.6Q31.95-25.65 32.2-24.65L32.2-24.65Q32.25-24.35 32.3-24.15 32.34-23.95 32.34-23.85L32.34-23.85 32.65-22.85 32.9-21.95 33.3-21.05Q33.45-20.7 33.62-20.43 33.8-20.15 33.95-19.9L33.95-19.9 34.55-18.85Q34.75-18.55 35.4-17.43 36.05-16.3 36.59-15.05L36.59-15.05Q37.09-14 37.34-13.08 37.59-12.15 37.8-10.85L37.8-10.85Q37.95-9.6 37.95-8.1L37.95-8.1Q37.95-5.7 37.3-3.6L37.3-3.6Q36.4-1.1 34.7-0.1L34.7-0.1Q33.75 0.5 32.5 0.5L32.5 0.5 32.25 0.6ZM36.2-32L36.25-32Q36.25-32.05 36.2-32.05L36.2-32.05 36.2-32ZM47.29 0.75Q47.14 0.75 46.89 0.55 46.64 0.35 46.59 0.2L46.59 0.2Q47.04-1 47.04-8.55L47.04-8.55Q47.04-10 46.89-12.7L46.89-12.7 46.64-16.25 46.34-16.9 46.49-17.5Q46.19-18.2 45.59-19.85 44.99-21.5 44.39-23.2L44.39-23.2Q42.59-27.95 42.04-30.05L42.04-30.05Q41.74-31.05 41.59-31.9L41.59-31.9 42.29-32.45Q42.79-32.35 43.74-29.25L43.74-29.25Q44.49-27.05 45.09-24.9L45.09-24.9 45.69-23Q46.59-19.9 46.99-19.8L46.99-19.8 47.19-20.7 47.09-20.95Q47.49-21.45 48.09-24.5L48.09-24.5Q48.74-28 49.34-30.4L49.34-30.4Q49.99-33.2 50.64-33.2L50.64-33.2Q50.89-33.2 51.09-33.05 51.29-32.9 51.29-32.7L51.29-32.7Q51.29-31.95 49.79-26.8L49.79-26.8Q49.04-24.35 48.54-22.2L48.54-22.2Q47.94-19.65 47.94-17.65L47.94-17.65Q48.19-17.15 48.19-16.8L48.19-16.8Q48.19-16.55 48.04-16.1L48.04-16.1Q47.89-15.65 47.89-15.35L47.89-15.35Q47.89-15.1 48.09-13.1L48.09-13.1Q48.29-11.75 48.29-10.8L48.29-10.8Q48.29-8.6 48.34-6.85L48.34-6.85 48.34-2.85 48.34-2.65Q48.34 0.75 47.29 0.75L47.29 0.75ZM63.24 0.35Q60.94 0.35 59.84-0.2 58.74-0.75 58.22-2.33 57.69-3.9 57.29-7.35L57.29-7.35Q56.69-12.4 56.69-15.2L56.69-15.2Q56.69-16.9 56.89-19.1L56.89-19.1 57.19-22.25Q57.44-26 57.77-27.93 58.09-29.85 59.22-31.33 60.34-32.8 62.69-33.05L62.69-33.05Q62.94-33.1 63.49-33.1L63.49-33.1Q65.04-33.1 65.04-32.4L65.04-32.4Q65.04-32.1 64.72-31.88 64.39-31.65 64.04-31.65L64.04-31.65 63.54-31.7 63.09-31.75Q62.24-31.75 61.57-31.2 60.89-30.65 60.44-29.6L60.44-29.6Q59.39-27.1 59.09-24.7L59.09-24.7Q58.69-21.55 58.59-19.2L58.59-19.2 58.54-15.35Q58.54-12.9 58.69-11.7L58.69-11.7Q59.04-11.15 59.17-10.03 59.29-8.9 59.39-6.95L59.39-6.95Q59.49-5.2 59.84-3.98 60.19-2.75 61.09-1.95L61.09-1.95Q62.09-1.1 63.84-1.1L63.84-1.1Q65.29-1.1 65.89-2.7L65.89-2.7Q66.59-4.4 66.69-6.2L66.69-6.2Q66.84-8.45 66.84-10L66.84-10 66.84-12.75Q66.34-13.25 65.09-13.25L65.09-13.25 64.69-13.25Q64.44-13.2 64.14-13.2L64.14-13.2Q62.94-13.2 62.94-13.8L62.94-13.8Q62.94-14.65 64.14-14.65L64.14-14.65Q64.99-14.65 65.54-14.6L65.54-14.6 66.64-14.55Q67.59-14.4 68.14-14.2L68.14-14.2Q68.74-14 68.74-13.65L68.74-13.65Q68.74-13 68.44-11.8L68.44-11.8Q68.19-10.4 68.19-9.9L68.19-9.9Q68.19-7.8 68.29-6.1L68.29-6.1Q68.34-4.35 68.34-2.25L68.34-2.25Q65.79 0.35 63.24 0.35L63.24 0.35ZM79.49 0.95Q73.64 0.95 73.64-17.45L73.64-17.45 73.64-19.2Q73.64-33.15 77.24-33.15L77.24-33.15Q77.49-33.15 77.94-33L77.94-33Q79.54-32.45 81.09-32.3L81.09-32.3Q82.04-32.1 82.99-30.35L82.99-30.35Q84.04-28.55 84.56-25.6 85.09-22.65 85.09-19.55L85.09-19.55 84.99-19.3Q84.99-17.65 85.04-16.35L85.04-16.35 85.09-13.35Q85.09-10.8 84.89-8.75L84.89-8.75Q84.59-5.65 83.89-3.4L83.89-3.4Q83.44-2.05 82.86-1.15 82.29-0.25 81.44 0.35L81.44 0.35Q80.64 0.95 79.49 0.95L79.49 0.95ZM79.29-0.5Q81.24-0.5 82.19-3.25L82.19-3.25Q83.14-6.05 83.34-8.95L83.34-8.95Q83.54-11.95 83.54-13.75L83.54-13.75Q83.54-15.75 83.24-19.65L83.24-19.65Q82.99-24 82.99-25.55L82.99-25.55 82.79-25.95 82.89-26.2Q82.89-28.4 81.66-30 80.44-31.6 78.69-31.6L78.69-31.6Q76.39-31.6 75.94-29.4L75.94-29.4Q75.84-28.65 75.74-27.25L75.74-27.25Q75.74-23.55 75.44-22.2L75.44-22.2Q75.44-21.45 75.29-19.85L75.29-19.85 75.19-17.5Q75.19-16.4 75.24-15.55L75.24-15.55 75.29-13.55Q75.29-11.2 75.69-8.15L75.69-8.15Q75.99-5.9 76.39-4.35 76.79-2.8 77.54-1.7L77.54-1.7Q78.29-0.5 79.29-0.5L79.29-0.5Z" fill="#000000" data-fill-palette-color="primary"></path></g></svg></g></svg></g></svg></g></svg></g><g transform="matrix(1,0,0,1,439.6349239837454,0)"><svg viewBox="0 0 244.43135999999998 198.75828052845696" height="198.75828052845696" width="244.43135999999998"><g><svg version="1.1" xmlns="http://www.w3.org/2000/svg" xmlns:xlink="http://www.w3.org/1999/xlink" x="0" y="0" viewBox="0 0.0002883635461330414 99.99897003173828 81.313720703125" enable-background="new 0 0 100 81.314" xml:space="preserve" width="244.43135999999998" height="198.75828052845696" class="icon-icon-0" data-fill-palette-color="accent" id="icon-0"><path fill="#000000" d="M39.74 2.399l-0.255-1.1c1.479-0.344 2.989-0.619 4.49-0.83l0.158 1.121C42.664 1.793 41.185 2.068 39.74 2.399z" data-fill-palette-color="accent"></path><path fill="#000000" d="M61.917 2.333c-1.442-0.328-2.919-0.587-4.403-0.777l0.15-1.122c1.515 0.195 3.027 0.464 4.497 0.795L61.917 2.333z" data-fill-palette-color="accent"></path><path fill="#000000" d="M48.589 1.184l-0.053-1.129c1.524-0.071 3.071-0.071 4.572-0.011l-0.042 1.132C51.574 1.114 50.075 1.114 48.589 1.184z" data-fill-palette-color="accent"></path><path fill="#000000" d="M7.252 77.205c0.784 1.306 1.633 2.586 2.525 3.809l0.914-0.669c-0.872-1.192-1.704-2.441-2.473-3.722L7.252 77.205z" data-fill-palette-color="accent"></path><path fill="#000000" d="M3.267 68.983c0.54 1.431 1.146 2.845 1.806 4.199l1.015-0.493c-0.642-1.324-1.236-2.707-1.766-4.102L3.267 68.983z" data-fill-palette-color="accent"></path><path fill="#000000" d="M0.826 60.179c0.275 1.498 0.617 2.999 1.022 4.455l1.09-0.301c-0.396-1.427-0.731-2.893-1-4.358L0.826 60.179z" data-fill-palette-color="accent"></path><path fill="#000000" d="M1.13 51.082H0c0.002 1.518 0.073 3.054 0.21 4.569l1.125-0.102C1.2 54.065 1.131 52.564 1.13 51.082z" data-fill-palette-color="accent"></path><path fill="#000000" d="M1.906 42.183l-1.113-0.2c-0.264 1.493-0.467 3.015-0.6 4.535l1.125 0.096C1.449 45.129 1.645 43.637 1.906 42.183z" data-fill-palette-color="accent"></path><path fill="#000000" d="M4.255 33.562l-1.059-0.393c-0.533 1.435-1.005 2.896-1.402 4.349l1.091 0.299C3.274 36.398 3.736 34.967 4.255 33.562z" data-fill-palette-color="accent"></path><path fill="#000000" d="M8.117 25.509l-0.972-0.577c-0.776 1.302-1.502 2.658-2.16 4.031l1.019 0.485C6.647 28.111 7.358 26.781 8.117 25.509z" data-fill-palette-color="accent"></path><path fill="#000000" d="M9.661 21.114l0.915 0.662c0.871-1.202 1.807-2.379 2.782-3.5l-0.853-0.743C11.506 18.677 10.55 19.885 9.661 21.114z" data-fill-palette-color="accent"></path><path fill="#000000" d="M19.088 11.207c-1.179 0.943-2.336 1.959-3.433 3.01l0.782 0.821c1.075-1.034 2.207-2.031 3.357-2.949L19.088 11.207z" data-fill-palette-color="accent"></path><path fill="#000000" d="M86.074 14.006c-1.095-1.042-2.256-2.048-3.447-2.998l-0.707 0.888c1.172 0.926 2.305 1.911 3.379 2.93L86.074 14.006z" data-fill-palette-color="accent"></path><path fill="#000000" d="M27.234 7.137l-0.54-0.989c-1.324 0.715-2.641 1.509-3.916 2.357l0.628 0.936C24.651 8.614 25.939 7.842 27.234 7.137z" data-fill-palette-color="accent"></path><path fill="#000000" d="M78.917 8.329c-1.266-0.831-2.585-1.616-3.935-2.336L74.454 6.99C75.764 7.69 77.059 8.46 78.3 9.272L78.917 8.329z" data-fill-palette-color="accent"></path><path fill="#000000" d="M35.434 3.599l-0.354-1.072c-1.455 0.477-2.894 1.024-4.272 1.621l0.446 1.038C32.604 4.601 34.013 4.071 35.434 3.599z" data-fill-palette-color="accent"></path><path fill="#000000" d="M70.862 4.023c-1.392-0.586-2.834-1.125-4.288-1.593l-0.345 1.077c1.423 0.455 2.831 0.981 4.191 1.559L70.862 4.023z" data-fill-palette-color="accent"></path><path fill="#000000" d="M99.129 26.774l-2.716-2.711 1.117-9.237-1.241-1.23-3.197 7.139-1.85-1.846c-0.161-0.163-0.379-0.287-0.609-0.361l0.624-3.083-0.992-0.993-1.476 3.457-3.455 1.474 0.989 0.994 3.087-0.624c0.075 0.229 0.199 0.446 0.362 0.61l1.85 1.85-7.144 3.201 1.227 1.236 9.245-1.112 2.707 2.711c0.5 0.507 1.162 0.816 1.873 0.867 0.124 0 0.247-0.036 0.339-0.124 0.084-0.089 0.138-0.211 0.129-0.335C99.946 27.94 99.636 27.278 99.129 26.774z" data-fill-palette-color="accent"></path><path fill="#000000" d="M51.09 15.112c-18.253 0-33.101 14.848-33.101 33.101 0 18.251 14.848 33.101 33.101 33.101 18.251 0 33.101-14.85 33.101-33.101C84.191 29.96 69.341 15.112 51.09 15.112zM78.073 53.609c0.601 0.607 0.87 1.167 0.991 1.774C75.867 67.848 64.537 77.089 51.09 77.089c-4.979 0-9.666-1.267-13.759-3.494 0.041-0.179 0.081-0.361 0.121-0.555 0.244-1.177 2.063-1.742 2.844-2.521 0.761-0.762 2.275-1.223 2.745-2.219 0.308-0.653-0.128-1.49 0.134-2.099 0.199-0.458 0.958-0.957 1.314-1.314 0.894-0.894 1.564-3.22 1.564-4.442-1.338 0-2.675 0-4.012 0-1.267 0-1.021-1.498-1.026-2.429-0.001-0.5 0.031-1.111-0.212-1.568-0.277-0.52-1.174-0.368-1.655-0.612-0.837-0.425-1.531-1.257-1.695-2.192-0.108-0.613-0.086-1.062-0.857-1.032-0.758 0.032-1.462 0.639-2.167 0.639-0.885 0-1.77 0-2.655 0-1.957 0-3.914 0-5.869 0 0 0.317-0.18 1.349 0.109 1.494 0.723 0.36 1.445 0.722 2.167 1.083 1.078 0.54 1.394 1.889 1.921 2.941 0.518 1.036 1.105 2.054 1.559 3.116 0.562 1.314 0.97 2.777 1.993 3.833 0.431 0.445 1.267 0.354 1.45 0.967 0.232 0.77-0.007 1.71-0.184 2.468-0.196 0.839-0.442 1.668-0.659 2.502-5.966-4.296-10.229-10.807-11.581-18.319 0.402-0.031 0.805-0.085 1.039-0.085 0.78 0 0.804-0.058 1.369-0.621 0.495-0.495 0.817-0.642 0.817-1.324 0-0.79 0-1.583 0-2.372 0.96 0.479 1.918 0.96 2.878 1.438 0.042-1.163 0.873-1.312 1.831-1.473 1.138-0.188 1.887-1.405 2.941-1.405 0.869 0 1.23 0.166 2.046 0.43 0.428 0.141 0.965 0.304 1.412 0.165 0.601-0.188 0.459-1.261 0.667-1.743 0.299-0.697 0.754-1.683 1.56-1.75 0.876-0.07 2.012-0.465 1.056-1.419-1.049-1.049-1.833-2.387-2.542-3.68-0.303-0.555-0.379-1.43-0.89-1.813-1.116-0.838-2.792 0.298-3.63 1.05-0.471 0.425 0.268 1.402-0.379 1.675-1.052 0.446-2.425 0.804-3.511 0.285-0.592-0.283-0.958-0.977-1.63-1.101-0.464-0.084-0.37-0.214-0.37-0.734 0-0.876 0-1.754 0-2.631 0-0.364 0.101-0.221 0.432-0.316 1.303-0.374 0.534-2.07 1.825-2.091 1.497-0.025 0.019-2.576-0.386-3.096-0.227-0.292-0.453-0.423-0.7-0.482 5.295-6.638 13.444-10.903 22.576-10.903 8.311 0 15.809 3.534 21.082 9.173-1.552 1.686-3.22 3.605-4.354 4.456-0.778 0.583-1.786 0.937-2.655 1.371-0.867 0.435-2.043 0.202-2.993 0.202-0.247 0-3.165-0.04-3.165 0.036 0 0.865 0.433 2.625-0.402 3.044-0.997 0.498-2.116 0.878-2.909 1.669-0.225 0.225-1.146 0.867-0.881 1.133 0.001 0.001 0.002 0.002 0.004 0.003-0.145-0.078-0.294-0.128-0.449-0.123-1.129 0.038-2.53 0.086-3.514 0.708-0.624 0.394-0.455 0.99-0.538 1.645-0.094 0.736-0.325 1.515-0.854 2.06-0.632 0.652-0.531 0.759-0.531 1.817 1.119-0.124 2.24-0.249 3.362-0.372 0.132-0.018 0.955-0.022 0.955-0.169 0-0.278-0.157-1.22 0.034-1.411 0.424-0.424 0.853-0.853 1.28-1.28 0.259-0.259 0.73 0.48 0.942 0.693 0.39 0.389 0.771 0.472 0.357 0.882-0.391 0.394-0.784 0.787-1.175 1.178 0.174 0 1.437 0.047 1.44-0.033 0.051-1.074 0.701-2.108 1.438-2.845 0.796-0.796 1.887-0.805 2.745-0.117 0.347 0.28 0.134 1.179 0.134 1.556 0 0.253-0.07 2.878 0.062 2.878 0.633 0 1.185 0.146 1.67-0.265 1.667-1.403 3.848-1.067 5.464-2.613 0.479 0.959 0.96 1.918 1.439 2.878-1.143 0.382-2.287 0.762-3.43 1.143-0.09 0.029-0.862 0.346-0.902 0.269-0.261-0.513-0.539-1.039-0.894-1.495-0.472-0.607-0.59-0.08-0.497 0.478 0.151 0.922 0.736 1.785 1.371 2.451 0.666 0.698 1.039 2.043 1.473 2.912-0.09-1.769 2.485 1.045 2.879 1.438 0.608-0.608 1.22-1.22 1.827-1.826 0.304-0.304 0.604-0.604 0.905-0.905 0.244-0.245-0.028-0.315-0.216-0.579-1.016-1.42 1.593-1.007 2.386-1.007 1.498 0 2.637 0.391 3.732 1.439C76.322 51.74 77.753 53.287 78.073 53.609z" data-fill-palette-color="accent"></path><path fill="#000000" d="M52.289 37.419c-0.318 0.32-0.64 0.639-0.958 0.96-0.328 0.12-0.87 0.143-0.89 0.521-0.024 0.467-0.045 0.931-0.07 1.398 0.627-0.313 1.254-0.627 1.88-0.939C52.451 39.258 52.289 37.697 52.289 37.419z" data-fill-palette-color="accent"></path><path fill="#000000" d="M55.143 35.98c0.357 0 0.984 0.2 0.984-0.225 0-0.009 0-0.019 0-0.027 0.069 0.137 0.193 0.223 0.386 0.241-0.115 0.484-0.241 0.968-0.386 1.451 0.438-0.438 0.874-0.875 1.313-1.314 0.294-0.294 0.125-1.03 0.125-1.42 0-0.068 0-0.137 0-0.206 0-0.938 0-1.878 0-2.817-0.027 0.055-0.075 0.144-0.132 0.248-0.018-0.203-0.027-0.402-0.048-0.607-0.056 0.337-0.111 0.671-0.167 1.006-0.368 0.688-0.897 1.733-1.092 2.534 0-0.121 0-0.242 0-0.363 0-0.938 0-1.878 0-2.817C55.836 32.244 53.612 35.98 55.143 35.98z" data-fill-palette-color="accent"></path><path fill="#000000" d="M68.034 58.973c0.94-0.157 1.805-0.756 2.485-1.405-1.067-0.355-2.131-0.711-3.199-1.066-1.194-0.398-1.197-0.527-1.775-1.686-0.453-0.909-0.766-1.549-1.471-2.254-0.515-0.515-2.19-1.66-2.19-2.415 0-1.149 0.223-1.214-0.853-1.214-1.348 0-2.695 0-4.044 0-2.206 0-4.411 0-6.616 0-0.87 0.882-1.714 1.841-2.353 2.906-1.137 1.895 0.285 2.842 1.53 4.205 1.332 1.457 0.816 3.931 3.308 4.368 0.889 0.154 1.894 0.033 2.794 0.033 0.107 0 2.08-0.278 1.89-0.624 0.209 0.375 0.094 1.417 0.168 1.872 0.169 1.021 0.39 2.035 0.616 3.044 0.267 1.203 0.683 2.39 0.683 3.624 0 1.269 1.321 2.04 2.189 2.909 0.33 0.33 0.519 0.688 0.988 0.688 0.811 0 1.626 0 2.438 0 0.404 0-0.35-4.992 0.929-5.623 0.365-0.18 1.087 0.021 1.303-0.396 0.149-0.283-0.014-0.631 0.135-0.913 0.358-0.69 1.203-0.016 1.285-1.152 0.064-0.922-0.099-2.825-0.749-3.555C66.734 59.431 66.98 59.15 68.034 58.973z" data-fill-palette-color="accent"></path><path fill="#000000" d="M46.035 28.767c-0.732-0.723-1.521-1.408-2.367-1.996-1.143-0.794-2.004-0.865-3.372-0.865-0.654 0-1.321-0.045-1.973 0.008-0.281 0.023-0.172 0.337-0.253 0.545-0.491 1.256-2.532 2.765-3.531 3.764 1.382 0 2.153 2.867 2.677 3.915 0.315 0.629 0.202 1.283 0.202 1.986 0 1.029-0.089 1.207 0.622 1.918 0.706 0.706 0.646 0.989 1.343 0.292 0.701-0.701 1.401-1.401 2.101-2.101 0.46-0.462 0.251-1.21 0.251-1.836 0-0.924-0.328-1.295 0.607-1.295 0.718 0 1.392 0.064 1.97-0.432 0.438-0.378 0.779-0.854 1.381-0.973 0.668-0.132 2.08-0.371 1.798-1.474C47.377 29.776 46.377 29.105 46.035 28.767z" data-fill-palette-color="accent"></path></svg></g></svg></g></svg></g><defs></defs></svg><rect width="395.52" height="114.919967487366" fill="none" stroke="none" visibility="hidden"></rect></g></svg></g></svg>